<?xml version="1.0" encoding="UTF-8" standalone="no"?>
<!-- Created with Inkscape (http://www.inkscape.org/) -->

<svg
   xmlns:dc="http://purl.org/dc/elements/1.1/"
   xmlns:cc="http://creativecommons.org/ns#"
   xmlns:rdf="http://www.w3.org/1999/02/22-rdf-syntax-ns#"
   xmlns:svg="http://www.w3.org/2000/svg"
   xmlns="http://www.w3.org/2000/svg"
   xmlns:sodipodi="http://sodipodi.sourceforge.net/DTD/sodipodi-0.dtd"
   xmlns:inkscape="http://www.inkscape.org/namespaces/inkscape"
   width="250"
   height="250"
   id="svg2"
   version="1.1"
   inkscape:version="0.48.2 r9819"
   sodipodi:docname="logo.svg"
   inkscape:export-filename="C:\Users\PhilippZimmermann\Downloads\sharety\sharity\graphics\logo.png"
   inkscape:export-xdpi="143"
   inkscape:export-ydpi="143">
  <defs
     id="defs4" />
  <sodipodi:namedview
     id="base"
     pagecolor="#ffffff"
     bordercolor="#666666"
     borderopacity="1.0"
     inkscape:pageopacity="0.0"
     inkscape:pageshadow="2"
     inkscape:zoom="1.4"
     inkscape:cx="292.10542"
     inkscape:cy="170.19264"
     inkscape:document-units="px"
     inkscape:current-layer="layer1"
     showgrid="false"
     inkscape:window-width="1485"
     inkscape:window-height="744"
     inkscape:window-x="91"
     inkscape:window-y="225"
     inkscape:window-maximized="0" />
  <metadata
     id="metadata7">
    <rdf:RDF>
      <cc:Work
         rdf:about="">
        <dc:format>image/svg+xml</dc:format>
        <dc:type
           rdf:resource="http://purl.org/dc/dcmitype/StillImage" />
        <dc:title></dc:title>
      </cc:Work>
    </rdf:RDF>
  </metadata>
  <g
     inkscape:label="Ebene 1"
     inkscape:groupmode="layer"
     id="layer1"
     transform="translate(0,-802.36218)">
    <rect
       style="fill:#a8d6ca;fill-opacity:1;stroke:none"
       id="rect2985"
       width="284.28571"
       height="280.71426"
       x="-14.428572"
       y="788.07648" />
    <path
       style="opacity:0.44107744;fill:#b8b5b5;fill-opacity:1;stroke:none"
       d="m 37.84375,990.21038 2.09375,3.1942 -8.25,-0.22285 c 0.04788,8.01627 0.004,12.82047 0.0068,19.44977 l 154.63158,-0.2572 0.46875,-0.2041 0.15625,-17.47091 -1.78125,-0.0495 0,-2.92182 -147.325896,-1.51757 z"
       id="path3845-1"
       inkscape:connector-curvature="0"
       sodipodi:nodetypes="ccccccccccc" />
    <path
       style="opacity:0.44100001;fill:#b8b5b5;fill-opacity:1;stroke:none"
       d="m 66.664102,920.78029 c 0,15.58232 -11.87435,25.81517 -27.45667,25.81517 -15.58232,0 -28.21428,-9.98031 -28.21428,-25.56263 0,-0.30217 0.3835,-23.07912 0.39298,-23.37899 0.47684,-15.16438 12.03607,2.23577 27.31622,2.23577 15.4755,0 28.92484,-17.08759 29.09639,-1.65272 10e-4,0.10654 -0.27566,22.82972 -0.377,22.79594 z"
       id="path3757-7-7-1"
       inkscape:connector-curvature="0"
       sodipodi:nodetypes="cssssssc" />
    <path
       sodipodi:type="arc"
       style="fill:#ffffff;fill-opacity:1;stroke:none"
       id="path3757"
       sodipodi:cx="51.785713"
       sodipodi:cy="62.5"
       sodipodi:rx="28.214285"
       sodipodi:ry="28.214285"
       d="m 79.999998,62.5 a 28.214285,28.214285 0 1 1 -56.42857,0 28.214285,28.214285 0 1 1 56.42857,0 z"
       transform="translate(-12.142857,832.36218)" />
    <path
       style="opacity:0.44100001;fill:#b8b5b5;fill-opacity:1;stroke:none"
       d="m 122.2225,865.2219 c 0,15.58232 -11.87435,25.81517 -27.456675,25.81517 -15.58232,0 -28.21429,-9.98031 -28.21429,-25.56263 0,-0.30217 0.38351,-23.07912 0.39299,-23.37899 0.47684,-15.16438 12.03607,2.23577 27.31622,2.23577 15.475505,0 28.924845,-17.08759 29.096395,-1.65272 0.001,0.10654 -0.27567,22.82972 -0.37701,22.79594 z"
       id="path3757-7-7-6"
       inkscape:connector-curvature="0"
       sodipodi:nodetypes="cssssssc" />
    <path
       transform="translate(43.283782,775.40893)"
       sodipodi:type="arc"
       style="fill:#ffffff;fill-opacity:1;stroke:none"
       id="path3757-1"
       sodipodi:cx="51.785713"
       sodipodi:cy="62.5"
       sodipodi:rx="28.214285"
       sodipodi:ry="28.214285"
       d="m 79.999998,62.5 a 28.214285,28.214285 0 1 1 -56.42857,0 28.214285,28.214285 0 1 1 56.42857,0 z" />
    <path
       transform="translate(103.21429,844.86218)"
       style="opacity:0.44100001;fill:#b8b5b5;fill-opacity:1;stroke:none"
       d="m 79.74746,55.176394 c 0,15.582319 -11.874352,25.815173 -27.456671,25.815173 -15.582319,0 -28.214285,-9.980316 -28.214285,-25.562635 0,-0.302166 0.383507,-23.079116 0.392987,-23.378993 0.476837,-15.164378 12.036069,2.235776 27.316222,2.235776 15.475497,0 28.924837,-17.087595 29.09639,-1.652723 0.0012,0.106541 -0.275668,22.829719 -0.377007,22.79594 z"
       id="path3757-7-7"
       inkscape:connector-curvature="0"
       sodipodi:nodetypes="cssssssc" />
    <path
       transform="translate(103.92858,815.57646)"
       sodipodi:type="arc"
       style="fill:#ffffff;fill-opacity:1;stroke:none"
       id="path3757-7"
       sodipodi:cx="51.785713"
       sodipodi:cy="62.5"
       sodipodi:rx="28.214285"
       sodipodi:ry="28.214285"
       d="m 79.999998,62.5 a 28.214285,28.214285 0 1 1 -56.42857,0 28.214285,28.214285 0 1 1 56.42857,0 z" />
    <path
       style="opacity:0.44100001;fill:#b8b5b5;fill-opacity:1;stroke:none"
       d="m 242.43065,1011.694 c 0,15.5823 -11.87436,25.8152 -27.45667,25.8152 -15.58232,0 -28.21429,-9.9803 -28.21429,-25.5626 0,-0.3022 0.38351,-23.07916 0.39299,-23.37903 0.47683,-15.16438 12.03607,2.23577 27.31622,2.23577 15.4755,0 28.92484,-17.08759 29.09639,-1.65272 0.001,0.10654 -0.27567,22.82968 -0.37701,22.79598 z"
       id="path3757-7-7-8"
       inkscape:connector-curvature="0"
       sodipodi:nodetypes="cssssssc" />
    <path
       transform="translate(163.92857,922.00504)"
       sodipodi:type="arc"
       style="fill:#ffffff;fill-opacity:1;stroke:none"
       id="path3757-4"
       sodipodi:cx="51.785713"
       sodipodi:cy="62.5"
       sodipodi:rx="28.214285"
       sodipodi:ry="28.214285"
       d="m 79.999998,62.5 a 28.214285,28.214285 0 1 1 -56.42857,0 28.214285,28.214285 0 1 1 56.42857,0 z" />
    <path
       style="fill:none;stroke:#ffffff;stroke-width:15;stroke-linecap:butt;stroke-linejoin:miter;stroke-miterlimit:4;stroke-opacity:1;stroke-dasharray:none"
       d="M 210.71429,987.36218 39.285714,986.64789 40,898.79075"
       id="path3791"
       inkscape:connector-curvature="0"
       sodipodi:nodetypes="ccc" />
    <path
       style="fill:none;stroke:#ffffff;stroke-width:15;stroke-linecap:butt;stroke-linejoin:miter;stroke-miterlimit:4;stroke-opacity:1;stroke-dasharray:none"
       d="M 94.285714,838.79075 95,986.64789"
       id="path3793"
       inkscape:connector-curvature="0"
       sodipodi:nodetypes="cc" />
    <path
       style="fill:none;stroke:#ffffff;stroke-width:15;stroke-linecap:butt;stroke-linejoin:miter;stroke-miterlimit:4;stroke-opacity:1;stroke-dasharray:none"
       d="m 155.71429,876.64789 1.42857,109.28571"
       id="path3795"
       inkscape:connector-curvature="0"
       sodipodi:nodetypes="cc" />
  </g>
</svg>
